{"title":"American Idol S13E39 Finale - Judges True Colors &amp; Go Your O","uid":10205531,"size":17845990,"categoryP":"audio","categoryS":"other","magnet":"?xt=urn:btih:cf704add990f54635bd79804d2a984877d355e9b&amp;dn=American+Idol+S13E39+Finale+-+Judges+True+Colors+%26amp%3B+Go+Your+O&amp;tr=udp%3A%2F%2Ftracker.openbittorrent.com%3A80&amp;tr=udp%3A%2F%2Fopen.demonii.com%3A1337&amp;tr=udp%3A%2F%2Ftracker.coppersurfer.tk%3A6969&amp;tr=udp%3A%2F%2Fexodus.desync.com%3A6969","seeders":0,"leechers":0,"uploader":"jstockton","files":-1,"time":1400843338,"description":"Go Your Own Way.wma\n Format : Windows Media\n File size : 11.9 MiB\n Duration : 3mn 0s\n Overall bit rate mode : Constant\n Overall bit rate : 552 Kbps\n Maximum Overall bit rate : 324 Kbps\n\n Audio\n ID : 1\n Format : WMA\n Format version : Version 2\n Codec ID : 161\n Codec ID/Info : Windows Media Audio\n Description of the codec : Windows Media Audio V8\n Duration : 3mn 0s\n Bit rate mode : Constant\n Bit rate : 324 Kbps\n Channel(s) : 2 channels\n Sampling rate : 44.1 KHz\n Bit depth : 16 bits\n Stream size : 6.97 MiB (59%)\n\nTrue Colors.wma\n Format : Windows Media\n File size : 5.15 MiB\n Duration : 1mn 18s\n Overall bit rate mode : Constant\n Overall bit rate : 553 Kbps\n Maximum Overall bit rate : 324 Kbps\n\n Audio\n ID : 1\n Format : WMA\n Format version : Version 2\n Codec ID : 161\n Codec ID/Info : Windows Media Audio\n Description of the codec : Windows Media Audio V8\n Duration : 1mn 18s\n Bit rate mode : Constant\n Bit rate : 324 Kbps\n Channel(s) : 2 channels\n Sampling rate : 44.1 KHz\n Bit depth : 16 bits\n Stream size : 3.02 MiB (59%)","torrent":{"xt":"urn:btih:cf704add990f54635bd79804d2a984877d355e9b","amp;dn":"American+Idol+S13E39+Finale+-+Judges+True+Colors+%26amp%3B+Go+Your+O","amp;tr":["udp%3A%2F%2Ftracker.openbittorrent.com%3A80","udp%3A%2F%2Fopen.demonii.com%3A1337","udp%3A%2F%2Ftracker.coppersurfer.tk%3A6969","udp%3A%2F%2Fexodus.desync.com%3A6969"],"infoHash":"cf704add990f54635bd79804d2a984877d355e9b","infoHashBuffer":{"type":"Buffer","data":[207,112,74,221,153,15,84,99,91,215,152,4,210,169,132,135,125,53,94,155]},"announce":[],"urlList":[]}}